<svg width="960" height="720" viewBox="0 0 960 720" fill="none" xmlns="http://www.w3.org/2000/svg">
  <rect width="960" height="720" rx="36" fill="#FFF8EE"/>
  <circle cx="204" cy="142" r="100" fill="#FFEBCD"/>
  <circle cx="780" cy="164" r="122" fill="#FFF4E2"/>
  <rect x="122" y="520" width="716" height="96" rx="24" fill="#F4DFC0"/>
  <ellipse cx="482" cy="498" rx="234" ry="44" fill="#DDB98B"/>
  <path d="M254 454C286 346 402 294 514 340C640 392 646 520 566 582C522 616 414 614 352 574C298 540 240 502 254 454Z" fill="#E0A14C"/>
  <path d="M314 456C344 382 406 346 474 364C536 380 564 448 530 500C496 548 426 552 376 526C342 508 296 490 314 456Z" fill="#FFF4D8"/>
  <path d="M490 442C520 374 572 350 624 372C674 394 694 448 662 490C632 532 574 534 534 514C504 498 474 472 490 442Z" fill="#F2BC66"/>
  <path d="M524 444C548 394 586 378 620 394C656 410 666 446 644 476C624 504 586 506 558 492C538 482 512 466 524 444Z" fill="#FFF6DC"/>
</svg>
