<svg xmlns="http://www.w3.org/2000/svg" width="1900" height="1280" viewBox="0 0 1900 1280" role="img" aria-labelledby="title desc">
  <title id="title">Missing Admin Flowcharts</title>
  <desc id="desc">Additional flowcharts for One Man Vekery covering admin order management and account role management.</desc>
  <defs>
    <marker id="arrow" viewBox="0 0 10 10" refX="9" refY="5" markerWidth="8" markerHeight="8" orient="auto-start-reverse">
      <path d="M 0 0 L 10 5 L 0 10 z" fill="#f2f2f2"/>
    </marker>
    <style>
      .bg { fill: #101010; }
      .grid-small { stroke: #2a2a2a; stroke-width: 1; }
      .grid-large { stroke: #3a3a3a; stroke-width: 1.4; }
      .title { font-family: Arial, Helvetica, sans-serif; font-size: 40px; font-weight: 700; fill: #f5f5f5; }
      .subtitle { font-family: Arial, Helvetica, sans-serif; font-size: 24px; font-weight: 700; fill: #f5f5f5; }
      .node { fill: #151515; stroke: #f2f2f2; stroke-width: 2.2; }
      .terminal { fill: #151515; stroke: #f2f2f2; stroke-width: 2.2; }
      .decision { fill: #151515; stroke: #f2f2f2; stroke-width: 2.2; }
      .flow { stroke: #f2f2f2; stroke-width: 2.2; fill: none; marker-end: url(#arrow); }
      .label { font-family: Arial, Helvetica, sans-serif; font-size: 19px; fill: #f4f4f4; }
      .label-small { font-family: Arial, Helvetica, sans-serif; font-size: 16px; fill: #f4f4f4; }
      .edge-label { font-family: Arial, Helvetica, sans-serif; font-size: 15px; fill: #f4f4f4; stroke: #101010; stroke-width: 5; paint-order: stroke fill; }
      .center { text-anchor: middle; dominant-baseline: middle; }
    </style>
  </defs>

  <rect class="bg" x="-10" y="-10" width="1920" height="1300"/>

  <!-- grid -->
  <g opacity="0.9">
    <path class="grid-small" d="M 0 20 H 1900 M 0 40 H 1900 M 0 60 H 1900 M 0 80 H 1900 M 0 100 H 1900 M 0 120 H 1900 M 0 140 H 1900 M 0 160 H 1900 M 0 180 H 1900 M 0 200 H 1900 M 0 220 H 1900 M 0 240 H 1900 M 0 260 H 1900 M 0 280 H 1900 M 0 300 H 1900 M 0 320 H 1900 M 0 340 H 1900 M 0 360 H 1900 M 0 380 H 1900 M 0 400 H 1900 M 0 420 H 1900 M 0 440 H 1900 M 0 460 H 1900 M 0 480 H 1900 M 0 500 H 1900 M 0 520 H 1900 M 0 540 H 1900 M 0 560 H 1900 M 0 580 H 1900 M 0 600 H 1900 M 0 620 H 1900 M 0 640 H 1900 M 0 660 H 1900 M 0 680 H 1900 M 0 700 H 1900 M 0 720 H 1900 M 0 740 H 1900 M 0 760 H 1900 M 0 780 H 1900 M 0 800 H 1900 M 0 820 H 1900 M 0 840 H 1900 M 0 860 H 1900 M 0 880 H 1900 M 0 900 H 1900 M 0 920 H 1900 M 0 940 H 1900 M 0 960 H 1900 M 0 980 H 1900 M 0 1000 H 1900 M 0 1020 H 1900 M 0 1040 H 1900 M 0 1060 H 1900 M 0 1080 H 1900 M 0 1100 H 1900 M 0 1120 H 1900 M 0 1140 H 1900 M 0 1160 H 1900"/>
    <path class="grid-small" d="M 20 0 V 1180 M 40 0 V 1180 M 60 0 V 1180 M 80 0 V 1180 M 100 0 V 1180 M 120 0 V 1180 M 140 0 V 1180 M 160 0 V 1180 M 180 0 V 1180 M 200 0 V 1180 M 220 0 V 1180 M 240 0 V 1180 M 260 0 V 1180 M 280 0 V 1180 M 300 0 V 1180 M 320 0 V 1180 M 340 0 V 1180 M 360 0 V 1180 M 380 0 V 1180 M 400 0 V 1180 M 420 0 V 1180 M 440 0 V 1180 M 460 0 V 1180 M 480 0 V 1180 M 500 0 V 1180 M 520 0 V 1180 M 540 0 V 1180 M 560 0 V 1180 M 580 0 V 1180 M 600 0 V 1180 M 620 0 V 1180 M 640 0 V 1180 M 660 0 V 1180 M 680 0 V 1180 M 700 0 V 1180 M 720 0 V 1180 M 740 0 V 1180 M 760 0 V 1180 M 780 0 V 1180 M 800 0 V 1180 M 820 0 V 1180 M 840 0 V 1180 M 860 0 V 1180 M 880 0 V 1180 M 900 0 V 1180 M 920 0 V 1180 M 940 0 V 1180 M 960 0 V 1180 M 980 0 V 1180 M 1000 0 V 1180 M 1020 0 V 1180 M 1040 0 V 1180 M 1060 0 V 1180 M 1080 0 V 1180 M 1100 0 V 1180 M 1120 0 V 1180 M 1140 0 V 1180 M 1160 0 V 1180 M 1180 0 V 1180 M 1200 0 V 1180 M 1220 0 V 1180 M 1240 0 V 1180 M 1260 0 V 1180 M 1280 0 V 1180 M 1300 0 V 1180 M 1320 0 V 1180 M 1340 0 V 1180 M 1360 0 V 1180 M 1380 0 V 1180 M 1400 0 V 1180 M 1420 0 V 1180 M 1440 0 V 1180 M 1460 0 V 1180 M 1480 0 V 1180 M 1500 0 V 1180 M 1520 0 V 1180 M 1540 0 V 1180 M 1560 0 V 1180 M 1580 0 V 1180 M 1600 0 V 1180 M 1620 0 V 1180 M 1640 0 V 1180 M 1660 0 V 1180 M 1680 0 V 1180 M 1700 0 V 1180 M 1720 0 V 1180 M 1740 0 V 1180 M 1760 0 V 1180 M 1780 0 V 1180 M 1800 0 V 1180 M 1820 0 V 1180 M 1840 0 V 1180 M 1860 0 V 1180 M 1880 0 V 1180"/>
    <path class="grid-large" d="M 0 100 H 1900 M 0 200 H 1900 M 0 300 H 1900 M 0 400 H 1900 M 0 500 H 1900 M 0 600 H 1900 M 0 700 H 1900 M 0 800 H 1900 M 0 900 H 1900 M 0 1000 H 1900 M 0 1100 H 1900"/>
    <path class="grid-large" d="M 100 0 V 1180 M 200 0 V 1180 M 300 0 V 1180 M 400 0 V 1180 M 500 0 V 1180 M 600 0 V 1180 M 700 0 V 1180 M 800 0 V 1180 M 900 0 V 1180 M 1000 0 V 1180 M 1100 0 V 1180 M 1200 0 V 1180 M 1300 0 V 1180 M 1400 0 V 1180 M 1500 0 V 1180 M 1600 0 V 1180 M 1700 0 V 1180 M 1800 0 V 1180"/>
  </g>

  <text class="title center" x="950" y="58">Additional Flowcharts</text>

  <!-- Left flowchart: Admin Manage Orders -->
  <text class="subtitle center" x="475" y="115">Admin Manage Orders</text>

  <rect class="terminal" x="390" y="145" rx="30" ry="30" width="170" height="54"/>
  <text class="label center" x="475" y="172">เริ่ม</text>

  <rect class="node" x="345" y="235" width="260" height="70"/>
  <text class="label center" x="475" y="270">เข้าสู่ระบบหลังบ้าน</text>

  <path class="decision" d="M 475 345 L 620 420 L 475 495 L 330 420 Z"/>
  <text class="label center" x="475" y="410">สิทธิ์ถูกต้อง</text>
  <text class="label center" x="475" y="435">หรือไม่</text>

  <rect class="node" x="660" y="385" width="250" height="70"/>
  <text class="label center" x="785" y="420">ปฏิเสธการเข้าใช้งาน</text>

  <rect class="node" x="345" y="540" width="260" height="70"/>
  <text class="label center" x="475" y="575">เปิดหน้า Orders</text>

  <path class="decision" d="M 475 650 L 625 725 L 475 800 L 325 725 Z"/>
  <text class="label center" x="475" y="716">เลือกจัดการ</text>
  <text class="label center" x="475" y="741">ออเดอร์แบบใด</text>

  <rect class="node" x="95" y="860" width="250" height="76"/>
  <text class="label center" x="220" y="888">สร้างออเดอร์</text>
  <text class="label-small center" x="220" y="913">เลือกลูกค้าและสินค้า</text>

  <path class="decision" d="M 220 975 L 350 1040 L 220 1105 L 90 1040 Z"/>
  <text class="label center" x="220" y="1031">ข้อมูลและสต็อก</text>
  <text class="label center" x="220" y="1056">ถูกต้องหรือไม่</text>

  <rect class="node" x="420" y="860" width="260" height="76"/>
  <text class="label center" x="550" y="888">แก้ไขสถานะออเดอร์</text>
  <text class="label-small center" x="550" y="913">Order / Payment Status</text>

  <rect class="node" x="720" y="860" width="250" height="76"/>
  <text class="label center" x="845" y="888">ตรวจสอบหลักฐาน</text>
  <text class="label-small center" x="845" y="913">และหมายเหตุออเดอร์</text>

  <rect class="node" x="405" y="1010" width="290" height="70"/>
  <text class="label center" x="550" y="1045">บันทึก Orders / OrderItems</text>

  <rect class="node" x="705" y="1010" width="280" height="70"/>
  <text class="label center" x="845" y="1045">อัปเดตสถานะออเดอร์</text>

  <rect class="terminal" x="530" y="1115" rx="30" ry="30" width="170" height="54"/>
  <text class="label center" x="615" y="1142">จบ</text>

  <path class="flow" d="M 475 199 V 235"/>
  <path class="flow" d="M 475 305 V 345"/>
  <path class="flow" d="M 620 420 H 660"/>
  <text class="edge-label center" x="642" y="404">ไม่ใช่</text>
  <path class="flow" d="M 785 455 V 1142 H 700"/>
  <path class="flow" d="M 475 495 V 540"/>
  <text class="edge-label center" x="496" y="518">ใช่</text>
  <path class="flow" d="M 475 610 V 650"/>
  <path class="flow" d="M 360 770 H 220 V 860"/>
  <text class="edge-label center" x="282" y="785">เพิ่ม</text>
  <path class="flow" d="M 220 936 V 975"/>
  <path class="flow" d="M 350 1040 H 405"/>
  <text class="edge-label center" x="375" y="1023">ใช่</text>
  <path class="flow" d="M 90 1040 H 55 V 898 H 95"/>
  <text class="edge-label center" x="70" y="1020">ไม่</text>
  <path class="flow" d="M 475 800 V 835 H 550 V 860"/>
  <text class="edge-label center" x="565" y="835">แก้ไข</text>
  <path class="flow" d="M 625 725 H 845 V 860"/>
  <text class="edge-label center" x="745" y="709">ตรวจสอบ</text>
  <path class="flow" d="M 550 936 V 1010"/>
  <path class="flow" d="M 845 936 V 1010"/>
  <path class="flow" d="M 550 1080 V 1115"/>
  <path class="flow" d="M 845 1080 V 1142 H 700"/>

  <!-- Right flowchart: Admin / Owner Manage Accounts -->
  <text class="subtitle center" x="1425" y="115">Admin / Owner Manage Accounts &amp; Staff Roles</text>

  <rect class="terminal" x="1340" y="145" rx="30" ry="30" width="170" height="54"/>
  <text class="label center" x="1425" y="172">เริ่ม</text>

  <rect class="node" x="1290" y="235" width="270" height="70"/>
  <text class="label center" x="1425" y="270">เข้าสู่หน้า Accounts</text>

  <path class="decision" d="M 1425 345 L 1580 420 L 1425 495 L 1270 420 Z"/>
  <text class="label center" x="1425" y="410">เป็น Admin / Owner</text>
  <text class="label center" x="1425" y="435">หรือไม่</text>

  <rect class="node" x="1640" y="385" width="230" height="70"/>
  <text class="label center" x="1755" y="420">จำกัดการแก้ไข Role</text>

  <path class="decision" d="M 1425 540 L 1580 615 L 1425 690 L 1270 615 Z"/>
  <text class="label center" x="1425" y="606">เลือกทำอะไร</text>
  <text class="label-small center" x="1425" y="632">Add / Edit / Close</text>

  <rect class="node" x="1045" y="760" width="260" height="76"/>
  <text class="label center" x="1175" y="788">เพิ่มบัญชี</text>
  <text class="label-small center" x="1175" y="813">User หรือ Staff</text>

  <path class="decision" d="M 1175 875 L 1310 940 L 1175 1005 L 1040 940 Z"/>
  <text class="label center" x="1175" y="931">Email / Role</text>
  <text class="label center" x="1175" y="956">ถูกต้องหรือไม่</text>

  <rect class="node" x="1350" y="760" width="260" height="76"/>
  <text class="label center" x="1480" y="788">แก้ไขบัญชี</text>
  <text class="label-small center" x="1480" y="813">ข้อมูล / Role / Status</text>

  <path class="decision" d="M 1480 875 L 1615 940 L 1480 1005 L 1345 940 Z"/>
  <text class="label center" x="1480" y="931">เป็นบัญชี Admin</text>
  <text class="label center" x="1480" y="956">ที่ถูกป้องกันหรือไม่</text>

  <rect class="node" x="1660" y="760" width="250" height="76"/>
  <text class="label center" x="1785" y="788">ปิดบัญชี</text>
  <text class="label-small center" x="1785" y="813">Suspended / Closed</text>

  <rect class="node" x="1045" y="1045" width="260" height="70"/>
  <text class="label center" x="1175" y="1080">บันทึกบัญชีใหม่</text>

  <rect class="node" x="1350" y="1045" width="260" height="70"/>
  <text class="label center" x="1480" y="1080">อัปเดตข้อมูลบัญชี</text>

  <rect class="node" x="1660" y="1045" width="250" height="70"/>
  <text class="label center" x="1785" y="1080">ปฏิเสธ / แจ้งเตือน</text>

  <rect class="terminal" x="1395" y="1145" rx="30" ry="30" width="170" height="54"/>
  <text class="label center" x="1480" y="1172">จบ</text>

  <path class="flow" d="M 1425 199 V 235"/>
  <path class="flow" d="M 1425 305 V 345"/>
  <path class="flow" d="M 1580 420 H 1640"/>
  <text class="edge-label center" x="1608" y="404">ไม่ใช่</text>
  <path class="flow" d="M 1755 455 V 1080 H 1660"/>
  <path class="flow" d="M 1425 495 V 540"/>
  <text class="edge-label center" x="1446" y="518">ใช่</text>
  <path class="flow" d="M 1320 662 H 1175 V 760"/>
  <text class="edge-label center" x="1225" y="677">เพิ่ม</text>
  <path class="flow" d="M 1425 690 V 725 H 1480 V 760"/>
  <text class="edge-label center" x="1495" y="725">แก้ไข</text>
  <path class="flow" d="M 1530 662 H 1785 V 760"/>
  <text class="edge-label center" x="1658" y="677">ปิด</text>
  <path class="flow" d="M 1175 836 V 875"/>
  <path class="flow" d="M 1310 940 H 1340 V 1080 H 1350"/>
  <text class="edge-label center" x="1328" y="922">ใช่</text>
  <path class="flow" d="M 1040 940 H 1000 V 798 H 1045"/>
  <text class="edge-label center" x="1018" y="920">ไม่</text>
  <path class="flow" d="M 1175 1005 V 1045"/>
  <path class="flow" d="M 1480 836 V 875"/>
  <path class="flow" d="M 1345 940 H 1320 V 1080 H 1350"/>
  <text class="edge-label center" x="1330" y="922">ไม่</text>
  <path class="flow" d="M 1615 940 H 1785 V 1045"/>
  <text class="edge-label center" x="1658" y="922">ใช่</text>
  <path class="flow" d="M 1785 836 V 1045"/>
  <path class="flow" d="M 1175 1115 V 1172 H 1395"/>
  <path class="flow" d="M 1480 1115 V 1145"/>
  <path class="flow" d="M 1785 1115 V 1172 H 1565"/>
</svg>
